<svg version="1.2" xmlns="http://www.w3.org/2000/svg" viewBox="0 0 272 272" width="272" height="272">
	<title>image-svg</title>
	<style>
		.s0 { fill: none;stroke: #000000;stroke-width: 10 } 
	</style>
	<path id="Layer" class="s0" d="m258.4 123.8l-1.5 7.5-6.2 8.2-4.1 7.3 1.2 7.9 3.6 8.8 1.2 10-3.7 9.6-6.8 4.2-5.6 0.3-3 1.3-8.4-4.1-8.1-8.3-6.9-8.2-6-7.6-5.4-7.5-4.5-6.7-4.8-6.4-7.4-3.5-8.2-1-8.1-1.5-8.5-0.6-7.7 2.9-3.6 4.6-2.6 5 0.4 9.7 3.6 9.4 3.7 4.7 4 5.2 8.6 7.3 9 6.4 8.3 5.8 5.9 4.3 6.2 4.8 6.7 5.4 4 5 4 6.5 0.9 7.5-1.9 8-6.8 7.6-9.8 5.3-11.1 0.9-6.4-4.7-4.8-3.7-4.8-11-5.9-11.1-6.2-4.9h-6.2l-5.6 8.6-0.5 13.7-0.3 12.5-6.1 7.8-5.2-1.8-5.7 0.1-6.8-1.2-4.9-10.5 2-15 3.6-13.1 2.7-11.9-2.6-12.4-8.1-2.3-9.7 6.5-6.2 8.1-4.4 9.1-4 9.9-6.2 8.3-8.9 3.2-9.1-2.1-4.5-5.5-3.3-4.9-5.7-2.2-4.8-4.9-5.8-4.5-4.6-8.4 0.8-6.3-1.5-5.4 3.4-7.7 7.9-4.2 8.5-1.5 9.9-0.6 8.9-1.5 8.6-2.9 7.8-4.4 6.5-5.9 3.3-8.6-3.2-7.1-6.5-5-2.7-6.6-1.6-7.8-5.8-4-10.9 4.2-10.8 10.9-8.5 1.6-4.9-5.3v-4.8l-1.7-4.8-9-0.6-10.5-0.1-4.4-7.8 1.5-10.8 4.1-9.2 5.4-7.7 8-4.4 8.8-0.6 8.8 0.6 9.6-0.4 5.3-5.2-1.2-9.3-1.6-9.5 4.5-5.9 8.2-0.8 7.9-0.7 4.2-5.8 1.2-9.9 3-3.6 1.9-5.9 8.7-3.5 7 3.1 5 3.9 1.9 9.4 0.3 8.7 0.7 11.5 4.4 8.6 5.1 2.6 5 0.6 6.3-2.6 4.9-5.5 3.6-7.8 2.2-8.7 0.4-9-0.1-9.6 3.3-8.1 7.3-4 8.7-0.8 8.2 3.2 6.2 4.2 7 2.3 7.2 5.7 3.6 9-3.3 9.8-10 9.8-10.7 10.4-7.8 11.5 0.8 8.5 8 3.5 12.6-4.2 11.4-8.6 6.8-4.5 8.5-4.5 8.3 1.1 6.6 5.8 0.3 8.9-6.5 8.8-5.3 8.6 1.7 7.7 7.1 4.9 8.6 1 9.8-0.2z"/>
</svg>